%
M48
M72
T01C0.02000
T02C0.03200
T03C0.03937
T04C0.04000
T05C0.04331
T06C0.04400
T07C0.11024
%
T01
X236200Y23400
T02
X225000Y20000
X215000Y20000
X205000Y20000
X195000Y40000
X165000Y40000
X155000Y40000
X135000Y60000
X135000Y70000
X135000Y80000
X125000Y80000
X125000Y70000
X125000Y60000
X115000Y45000
X125000Y40000
X100000Y20000
X90000Y20000
X80000Y20000
X85000Y45000
X70000Y45000
X70000Y60000
X70000Y75000
X85000Y75000
X64000Y95000
X56000Y95000
X44000Y110000
X36000Y110000
X40000Y75000
X40000Y60000
X40000Y45000
X20000Y40000
X20000Y50000
X20000Y60000
X85000Y140000
X85000Y150000
X85000Y160000
X115000Y160000
X115000Y150000
X115000Y140000
X135000Y140000
X135000Y150000
X135000Y160000
X135000Y170000
X165000Y170000
X165000Y160000
X165000Y150000
X165000Y140000
X175000Y125000
X175000Y115000
X175000Y105000
X175000Y95000
X190000Y110000
X190000Y120000
X180000Y140000
X210000Y140000
X220000Y120000
X220000Y110000
X235000Y105000
X245000Y105000
X245000Y120000
X235000Y120000
X235000Y135000
X245000Y135000
X241000Y160000
X249000Y160000
X265000Y160000
X265000Y175000
X249000Y185000
X241000Y185000
X245000Y215000
X255000Y215000
X265000Y215000
X265000Y235000
X255000Y235000
X245000Y235000
X235000Y235000
X235000Y215000
X225000Y265000
X245000Y290000
X255000Y290000
X255000Y265000
X295000Y175000
X295000Y160000
X275000Y85000
X275000Y75000
X275000Y65000
X290000Y60000
X290000Y50000
X290000Y40000
X245000Y65000
X245000Y75000
X245000Y85000
X145000Y95000
X145000Y105000
X145000Y115000
X145000Y125000
X115000Y75000
X75000Y215000
X75000Y230000
X75000Y245000
X70000Y260000
X80000Y260000
X65000Y275000
X55000Y275000
X50000Y290000
X80000Y290000
X45000Y245000
X45000Y230000
X45000Y215000
T03
X20000Y225000
X20000Y235000
X20000Y245000
X140315Y283071
X160000Y271260
X160000Y295472
X290000Y245000
X290000Y235000
X290000Y225000
T04
X210000Y235000
X180000Y235000
X140000Y235000
X110000Y235000
X15000Y95000
X15000Y85000
X15000Y75000
X45000Y15000
X55000Y15000
X65000Y15000
X240000Y15000
X250000Y15000
X260000Y15000
X295000Y75000
X295000Y85000
X295000Y95000
T05
X188780Y19606
X175000Y19606
X161220Y19606
X143780Y19606
X130000Y19606
X116220Y19606
X193110Y295394
X206890Y295394
T06
X225000Y275000
X230000Y255000
X270000Y255000
X220000Y170000
X220000Y155000
X180000Y155000
X180000Y170000
X125000Y125000
X125000Y110000
X125000Y95000
X145000Y70000
X145000Y55000
X185000Y55000
X195000Y60000
X185000Y70000
X195000Y75000
X195000Y90000
X235000Y90000
X235000Y75000
X235000Y60000
X255000Y120000
X255000Y135000
X295000Y135000
X295000Y120000
X185000Y275000
X130000Y275000
X130000Y290000
X90000Y290000
X90000Y275000
X70000Y195000
X70000Y180000
X55000Y180000
X55000Y165000
X65000Y150000
X60000Y135000
X85000Y125000
X85000Y110000
X85000Y95000
X25000Y150000
X15000Y165000
X15000Y180000
X20000Y135000
X110000Y180000
X110000Y195000
T07
X20000Y20000
X20000Y290000
X285000Y290000
X285000Y20000
M30
