G75*
%MOIN*%
%OFA0B0*%
%FSLAX25Y25*%
%IPPOS*%
%LPD*%
%AMOC8*
5,1,8,0,0,1.08239X$1,22.5*
%
%ADD10OC8,0.13200*%
%ADD11C,0.13200*%
%ADD12OC8,0.06400*%
%ADD13C,0.07600*%
%ADD14R,0.07137X0.07137*%
%ADD15C,0.07137*%
%ADD16C,0.10643*%
%ADD17C,0.11824*%
%ADD18C,0.06400*%
%ADD19C,0.06400*%
%ADD20C,0.07200*%
%ADD21C,0.07531*%
D10*
X0140000Y0235000D03*
X0210000Y0235000D03*
D11*
X0180000Y0235000D03*
X0110000Y0235000D03*
D12*
X0080000Y0260000D03*
X0070000Y0260000D03*
X0075000Y0245000D03*
X0075000Y0230000D03*
X0075000Y0215000D03*
X0045000Y0215000D03*
X0045000Y0230000D03*
X0045000Y0245000D03*
X0055000Y0275000D03*
X0065000Y0275000D03*
X0050000Y0290000D03*
X0080000Y0290000D03*
X0085000Y0160000D03*
X0085000Y0150000D03*
X0085000Y0140000D03*
X0115000Y0140000D03*
X0115000Y0150000D03*
X0115000Y0160000D03*
X0064000Y0095000D03*
X0070000Y0075000D03*
X0070000Y0060000D03*
X0070000Y0045000D03*
X0085000Y0045000D03*
X0085000Y0075000D03*
X0115000Y0075000D03*
X0125000Y0070000D03*
X0125000Y0060000D03*
X0135000Y0060000D03*
X0135000Y0070000D03*
X0135000Y0080000D03*
X0125000Y0080000D03*
X0115000Y0045000D03*
X0125000Y0040000D03*
X0155000Y0040000D03*
X0165000Y0040000D03*
X0195000Y0040000D03*
X0245000Y0065000D03*
X0245000Y0075000D03*
X0245000Y0085000D03*
X0245000Y0105000D03*
X0235000Y0105000D03*
X0235000Y0120000D03*
X0245000Y0120000D03*
X0245000Y0135000D03*
X0235000Y0135000D03*
X0220000Y0120000D03*
X0220000Y0110000D03*
X0190000Y0110000D03*
X0190000Y0120000D03*
X0180000Y0140000D03*
X0210000Y0140000D03*
X0241000Y0160000D03*
X0241000Y0185000D03*
X0265000Y0175000D03*
X0265000Y0160000D03*
X0295000Y0160000D03*
X0295000Y0175000D03*
X0265000Y0215000D03*
X0255000Y0215000D03*
X0245000Y0215000D03*
X0235000Y0215000D03*
X0235000Y0235000D03*
X0245000Y0235000D03*
X0255000Y0235000D03*
X0265000Y0235000D03*
X0255000Y0265000D03*
X0255000Y0290000D03*
X0245000Y0290000D03*
X0225000Y0265000D03*
X0275000Y0085000D03*
X0275000Y0075000D03*
X0275000Y0065000D03*
X0044000Y0110000D03*
X0040000Y0075000D03*
X0040000Y0060000D03*
X0040000Y0045000D03*
D13*
X0085000Y0095000D03*
X0085000Y0110000D03*
X0085000Y0125000D03*
X0060000Y0135000D03*
X0065000Y0150000D03*
X0055000Y0165000D03*
X0055000Y0180000D03*
X0070000Y0180000D03*
X0070000Y0195000D03*
X0110000Y0195000D03*
X0110000Y0180000D03*
X0125000Y0125000D03*
X0125000Y0110000D03*
X0125000Y0095000D03*
X0145000Y0070000D03*
X0145000Y0055000D03*
X0185000Y0055000D03*
X0195000Y0060000D03*
X0185000Y0070000D03*
X0195000Y0075000D03*
X0195000Y0090000D03*
X0235000Y0090000D03*
X0235000Y0075000D03*
X0235000Y0060000D03*
X0255000Y0120000D03*
X0255000Y0135000D03*
X0220000Y0155000D03*
X0220000Y0170000D03*
X0180000Y0170000D03*
X0180000Y0155000D03*
X0230000Y0255000D03*
X0225000Y0275000D03*
X0185000Y0275000D03*
X0130000Y0275000D03*
X0130000Y0290000D03*
X0090000Y0290000D03*
X0090000Y0275000D03*
X0015000Y0180000D03*
X0015000Y0165000D03*
X0025000Y0150000D03*
X0020000Y0135000D03*
X0270000Y0255000D03*
X0295000Y0135000D03*
X0295000Y0120000D03*
D14*
X0290000Y0245000D03*
X0020000Y0225000D03*
D15*
X0020000Y0235000D03*
X0020000Y0245000D03*
X0290000Y0235000D03*
X0290000Y0225000D03*
D16*
X0164921Y0271260D02*
X0155079Y0271260D01*
X0140315Y0278150D02*
X0140315Y0287992D01*
X0155079Y0295472D02*
X0164921Y0295472D01*
D17*
X0020000Y0020000D03*
X0020000Y0290000D03*
X0285000Y0290000D03*
X0285000Y0020000D03*
D18*
X0249000Y0160000D03*
X0249000Y0185000D03*
X0056000Y0095000D03*
X0036000Y0110000D03*
D19*
X0022800Y0060000D02*
X0017200Y0060000D01*
X0017200Y0050000D02*
X0022800Y0050000D01*
X0022800Y0040000D02*
X0017200Y0040000D01*
X0080000Y0022800D02*
X0080000Y0017200D01*
X0090000Y0017200D02*
X0090000Y0022800D01*
X0100000Y0022800D02*
X0100000Y0017200D01*
X0142200Y0095000D02*
X0147800Y0095000D01*
X0147800Y0105000D02*
X0142200Y0105000D01*
X0142200Y0115000D02*
X0147800Y0115000D01*
X0147800Y0125000D02*
X0142200Y0125000D01*
X0137800Y0140000D02*
X0132200Y0140000D01*
X0132200Y0150000D02*
X0137800Y0150000D01*
X0137800Y0160000D02*
X0132200Y0160000D01*
X0132200Y0170000D02*
X0137800Y0170000D01*
X0162200Y0170000D02*
X0167800Y0170000D01*
X0167800Y0160000D02*
X0162200Y0160000D01*
X0162200Y0150000D02*
X0167800Y0150000D01*
X0167800Y0140000D02*
X0162200Y0140000D01*
X0172200Y0125000D02*
X0177800Y0125000D01*
X0177800Y0115000D02*
X0172200Y0115000D01*
X0172200Y0105000D02*
X0177800Y0105000D01*
X0177800Y0095000D02*
X0172200Y0095000D01*
X0205000Y0022800D02*
X0205000Y0017200D01*
X0215000Y0017200D02*
X0215000Y0022800D01*
X0225000Y0022800D02*
X0225000Y0017200D01*
X0287200Y0040000D02*
X0292800Y0040000D01*
X0292800Y0050000D02*
X0287200Y0050000D01*
X0287200Y0060000D02*
X0292800Y0060000D01*
D20*
X0291800Y0075000D02*
X0298200Y0075000D01*
X0298200Y0085000D02*
X0291800Y0085000D01*
X0291800Y0095000D02*
X0298200Y0095000D01*
X0260000Y0018200D02*
X0260000Y0011800D01*
X0250000Y0011800D02*
X0250000Y0018200D01*
X0240000Y0018200D02*
X0240000Y0011800D01*
X0065000Y0011800D02*
X0065000Y0018200D01*
X0055000Y0018200D02*
X0055000Y0011800D01*
X0045000Y0011800D02*
X0045000Y0018200D01*
X0018200Y0075000D02*
X0011800Y0075000D01*
X0011800Y0085000D02*
X0018200Y0085000D01*
X0018200Y0095000D02*
X0011800Y0095000D01*
D21*
X0116220Y0019606D03*
X0130000Y0019606D03*
X0143780Y0019606D03*
X0161220Y0019606D03*
X0175000Y0019606D03*
X0188780Y0019606D03*
X0193110Y0295394D03*
X0206890Y0295394D03*
M02*
